# File created by Blade
# Date/Time:  Tue Apr 07 20:13:45 2015
#---------------------------------------------------------
:version 1.10
:name HOM
:units
  mass 1.0
  length 1.000000
  angle deg
:documentation
     Acclaim Skeleton File
:root
   axis xyz
   order TX TY TZ RX RY RZ
   position 0.000000 0.000000 0.000000
   orientation 0 0 0
:bonedata
   begin
      id 1
      name Spine_dum
      direction 0.000000 1.000000 0.000000
      length 4.885285
      axis 0.0 0.0 0.0 xyz
   end
   begin
      id 2
      name LeftUpLeg_dum
      direction 1.000000 0.000000 0.000000
      length 2.672193
      axis 0.0 0.0 0.0 xyz
   end
   begin
      id 3
      name RightUpLeg_dum
      direction -1.000000 0.000000 0.000000
      length 2.672193
      axis 0.0 0.0 0.0 xyz
   end
   begin
      id 4
      name Spine
      direction 0.000000 1.000000 0.000000
      length 0.000000
      axis 0.0 0.0 0.0 xyz
      dof rx ry rz
   end
   begin
      id 5
      name Spine_dum1
      direction 0.000000 1.000000 0.000000
      length 16.494159
      axis 0.0 0.0 0.0 xyz
   end
   begin
      id 6
      name Spine_dum2
      direction 0.000000 1.000000 0.000000
      length 10.663448
      axis 0.0 0.0 0.0 xyz
   end
   begin
      id 7
      name Spine_dum3
      direction 0.000000 1.000000 0.000000
      length 10.663448
      axis 0.0 0.0 0.0 xyz
   end
   begin
      id 8
      name Head
      direction 0.000000 1.000000 0.000000
      length 4.527550
      axis 0.0 0.0 0.0 xyz
      dof rx ry rz
   end
   begin
      id 9
      name LeftShoulder
      direction 1.000000 0.000000 0.000000
      length 7.531907
      axis 0.0 0.0 -90.0 xyz
      dof rx ry rz
   end
   begin
      id 10
      name LeftArm
      direction 1.000000 0.000000 0.000000
      length 10.229199
      axis 0.0 0.0 -90.0 xyz
      dof rx ry rz
   end
   begin
      id 11
      name LeftForeArm
      direction 1.000000 0.000000 0.000000
      length 8.673495
      axis 0.0 0.0 -90.0 xyz
      dof ry rz rx
   end
   begin
      id 12
      name LeftHand
      direction 0.000000 0.000000 0.000000
      length 0.000000
      axis 0.0 0.0 -90.0 xyz
      dof rx ry rz
   end
   begin
      id 13
      name LeftHand_dum1
      direction 0.000000 0.000000 0.000000
      length 0.000000
      axis 0.0 0.0 -90.0 xyz
   end
   begin
      id 14
      name LeftHand_dum2
      direction 1.000000 0.000000 0.000000
      length 3.937000
      axis 0.0 0.0 -90.0 xyz
   end
   begin
      id 15
      name LeftHandThumb1
      direction 0.000000 0.000000 1.000000
      length 3.937000
      axis 0.0 0.0 -90.0 xyz
      dof rx rz ry
   end
   begin
      id 16
      name RightShoulder
      direction -1.000000 0.000000 0.000000
      length 7.531907
      axis 0.0 0.0 90.0 xyz
      dof rx ry rz
   end
   begin
      id 17
      name RightArm
      direction -1.000000 0.000000 0.000000
      length 10.229199
      axis 0.0 0.0 90.0 xyz
      dof rx ry rz
   end
   begin
      id 18
      name RightForeArm
      direction -1.000000 0.000000 0.000000
      length 8.673495
      axis 0.0 0.0 90.0 xyz
      dof ry rz rx
   end
   begin
      id 19
      name RightHand
      direction 0.000000 0.000000 0.000000
      length 0.000000
      axis 0.0 0.0 90.0 xyz
      dof rx ry rz
   end
   begin
      id 20
      name RightHand_dum1
      direction 0.000000 0.000000 0.000000
      length 0.000000
      axis 0.0 0.0 90.0 xyz
   end
   begin
      id 21
      name RightHand_dum2
      direction -1.000000 0.000000 0.000000
      length 3.937000
      axis 0.0 0.0 90.0 xyz
   end
   begin
      id 22
      name RightHandThumb1
      direction 0.000000 0.000000 1.000000
      length 3.937000
      axis 0.0 0.0 90.0 xyz
      dof rx rz ry
   end
   begin
      id 23
      name LeftUpLeg
      direction 0.000000 -1.000000 0.000000
      length 16.263388
      axis 0.0 0.0 0.0 xyz
      dof rx ry rz
   end
   begin
      id 24
      name LeftLeg
      direction 0.000000 -1.000000 0.000000
      length 14.328163
      axis 0.0 0.0 0.0 xyz
      dof rx ry rz
   end
   begin
      id 25
      name LeftFoot
      direction 0.000000 -0.258819 0.965926
      length 5.031290
      axis 15.0 0.0 0.0 xyz
      dof rx ry rz
   end
   begin
      id 26
      name LeftToeBase
      direction 0.000000 0.000000 1.000000
      length 2.952750
      axis 0.0 0.0 0.0 xyz
      dof rx ry rz
   end
   begin
      id 27
      name RightUpLeg
      direction 0.000000 -1.000000 0.000000
      length 16.263388
      axis 0.0 0.0 0.0 xyz
      dof rx ry rz
   end
   begin
      id 28
      name RightLeg
      direction 0.000000 -1.000000 0.000000
      length 14.328163
      axis 0.0 0.0 0.0 xyz
      dof rx ry rz
   end
   begin
      id 29
      name RightFoot
      direction 0.000000 -0.258819 0.965926
      length 5.031290
      axis 15.0 0.0 0.0 xyz
      dof rx ry rz
   end
   begin
      id 30
      name RightToeBase
      direction 0.000000 0.000000 1.000000
      length 2.952750
      axis 0.0 0.0 0.0 xyz
      dof rx ry rz
   end
:hierarchy
   begin
      root Spine_dum LeftUpLeg_dum RightUpLeg_dum
      Spine_dum Spine
      LeftUpLeg_dum LeftUpLeg
      RightUpLeg_dum RightUpLeg
      Spine Spine_dum1 Spine_dum2 Spine_dum3
      Spine_dum1 Head
      Spine_dum2 LeftShoulder
      Spine_dum3 RightShoulder
      LeftShoulder LeftArm
      LeftArm LeftForeArm
      LeftForeArm LeftHand
      LeftHand LeftHand_dum1 LeftHand_dum2
      LeftHand_dum1 LeftHandThumb1
      RightShoulder RightArm
      RightArm RightForeArm
      RightForeArm RightHand
      RightHand RightHand_dum1 RightHand_dum2
      RightHand_dum1 RightHandThumb1
      LeftUpLeg LeftLeg
      LeftLeg LeftFoot
      LeftFoot LeftToeBase
      RightUpLeg RightLeg
      RightLeg RightFoot
      RightFoot RightToeBase
   end

# File created by Blade
# Date/Time:  Tue Apr 07 20:13:55 2015
# Frame Rate: 120.000 fps
#------------------------------------------------------
:FULLY-SPECIFIED
:DEGREES
738
root 2.424194 33.136954 -7.661475 -24.379852 17.375773 -20.951163
Spine 18.346150 -2.051652 16.160026
Head 5.214391 -10.858932 5.824536
LeftShoulder -6.546514 38.295827 19.453919
LeftArm 81.022172 28.087949 -36.595076
LeftForeArm -68.485153 0.000000 83.504380
LeftHand 6.251039 -0.000000 10.256230
LeftHandThumb1 -26.253704 0.000000 33.147579
RightShoulder 1.222521 0.957167 -24.158686
RightArm 26.355084 -35.974042 66.140883
RightForeArm 48.698906 -0.000000 79.435368
RightHand -4.070147 -0.000000 33.513213
RightHandThumb1 -24.326973 -0.000000 -32.862282
LeftUpLeg 10.063056 0.416780 16.480314
LeftLeg 21.109350 -0.000000 -0.000000
LeftFoot -15.944363 3.175678 -10.074890
LeftToeBase -9.444532 -0.000000 0.000000
RightUpLeg -116.038190 8.712978 18.283381
RightLeg 105.245535 -0.000000 -0.000000
RightFoot 37.546410 -12.181270 9.210555
RightToeBase 30.276644 -0.000000 -0.000000
739
root 2.429312 33.138477 -7.665701 -24.401757 17.407875 -20.923823
Spine 18.355917 -2.004563 16.137816
Head 5.199239 -10.908889 5.835297
LeftShoulder -6.549089 38.256342 19.451045
LeftArm 81.014872 28.130805 -36.619105
LeftForeArm -68.492117 0.000000 83.475578
LeftHand 6.212025 -0.000000 10.194508
LeftHandThumb1 -26.253704 0.000000 33.147579
RightShoulder 1.221261 0.940465 -24.185181
RightArm 26.372544 -35.983675 66.102064
RightForeArm 48.693777 0.000000 79.435635
RightHand -4.066677 -0.000000 33.508694
RightHandThumb1 -24.326973 -0.000000 -32.862282
LeftUpLeg 10.092105 0.475138 16.465197
LeftLeg 21.083032 -0.000000 -0.000000
LeftFoot -15.890826 3.092988 -10.064171
LeftToeBase -9.473434 -0.000000 0.000000
RightUpLeg -116.035118 8.710896 18.267956
RightLeg 105.267580 -0.000000 -0.000000
RightFoot 37.550535 -12.194433 9.211264
RightToeBase 30.309861 -0.000000 -0.000000
740
root 2.433311 33.140129 -7.671323 -24.420362 17.431495 -20.906725
Spine 18.362632 -1.956803 16.131421
Head 5.182439 -10.954075 5.837126
LeftShoulder -6.554453 38.213308 19.451455
LeftArm 81.011863 28.174261 -36.649324
LeftForeArm -68.499768 0.000000 83.455057
LeftHand 6.078193 -0.000000 10.213352
LeftHandThumb1 -26.253704 0.000000 33.147579
RightShoulder 1.218659 0.948093 -24.214807
RightArm 26.377681 -36.007159 66.075464
RightForeArm 48.655548 -0.000000 79.432613
RightHand -4.062096 -0.000000 33.487736
RightHandThumb1 -24.326973 -0.000000 -32.862282
LeftUpLeg 10.107154 0.530659 16.463723
LeftLeg 21.069943 -0.000000 -0.000000
LeftFoot -15.847899 3.000875 -10.086463
LeftToeBase -9.464494 -0.000000 0.000000
RightUpLeg -116.030196 8.708321 18.263262
RightLeg 105.279208 -0.000000 -0.000000
RightFoot 37.554474 -12.173158 9.197496
RightToeBase 30.473500 -0.000000 -0.000000
741
root 2.437292 33.142051 -7.675863 -24.450082 17.456499 -20.894816
Spine 18.373579 -1.934444 16.119207
Head 5.176018 -10.962171 5.833860
LeftShoulder -6.559871 38.216831 19.448652
LeftArm 81.048068 28.182708 -36.613913
LeftForeArm -68.532834 -0.000000 83.454631
LeftHand 6.182443 -0.000000 10.304203
LeftHandThumb1 -26.253704 0.000000 33.147579
RightShoulder 1.245612 0.942343 -24.228278
RightArm 26.378116 -35.997225 66.058651
RightForeArm 48.675319 0.000000 79.423665
RightHand -4.070526 0.000000 33.482275
RightHandThumb1 -24.326973 -0.000000 -32.862282
LeftUpLeg 10.134470 0.576534 16.469281
LeftLeg 21.049448 -0.000000 -0.000000
LeftFoot -15.794124 2.888130 -10.142946
LeftToeBase -9.505994 -0.000000 0.000000
RightUpLeg -116.018170 8.705389 18.253298
RightLeg 105.293165 -0.000000 -0.000000
RightFoot 37.572574 -12.162821 9.215307
RightToeBase 30.468869 -0.000000 -0.000000
742
root 2.439597 33.144219 -7.680266 -24.486044 17.487650 -20.900261
Spine 18.391584 -1.923466 16.115290
Head 5.147897 -10.960552 5.846437
LeftShoulder -6.569933 38.230151 19.454136
LeftArm 81.090900 28.179682 -36.580640
LeftForeArm -68.522439 -0.000000 83.466544
LeftHand 6.135054 -0.000000 10.509505
LeftHandThumb1 -26.253704 0.000000 33.147579
RightShoulder 1.262027 0.951662 -24.234846
RightArm 26.367425 -36.005102 66.043017
RightForeArm 48.734711 0.000000 79.432414
RightHand -4.065556 -0.000000 33.459956
RightHandThumb1 -24.326973 -0.000000 -32.862282
LeftUpLeg 10.152412 0.602588 16.490833
LeftLeg 21.044105 -0.000000 -0.000000
LeftFoot -15.748407 2.749459 -10.233048
LeftToeBase -9.525256 -0.000000 0.000000
RightUpLeg -116.000666 8.694975 18.261799
RightLeg 105.309003 -0.000000 -0.000000
RightFoot 37.572830 -12.148497 9.177083
RightToeBase 30.554914 -0.000000 -0.000000
743
root 2.441549 33.146843 -7.685335 -24.514968 17.531523 -20.918201
Spine 18.396367 -1.937756 16.117859
Head 5.115329 -10.970671 5.848040
LeftShoulder -6.592531 38.220723 19.439750
LeftArm 81.114417 28.183040 -36.540817
LeftForeArm -68.548687 -0.000000 83.469247
LeftHand 6.256278 -0.000000 10.615941
LeftHandThumb1 -26.253704 0.000000 33.147579
RightShoulder 1.270787 0.943862 -24.233817
RightArm 26.377281 -35.995395 66.027398
RightForeArm 48.784367 -0.000000 79.429538
RightHand -4.062786 0.000000 33.466112
RightHandThumb1 -24.326973 -0.000000 -32.862282
LeftUpLeg 10.152845 0.607551 16.515253
LeftLeg 21.041837 -0.000000 -0.000000
LeftFoot -15.724743 2.610773 -10.321690
LeftToeBase -9.356426 -0.000000 0.000000
RightUpLeg -115.998809 8.672482 18.265584
RightLeg 105.322074 -0.000000 -0.000000
RightFoot 37.569194 -12.140533 9.170269
RightToeBase 30.551679 -0.000000 -0.000000
744
root 2.443577 33.149458 -7.690203 -24.558209 17.581982 -20.936167
Spine 18.417154 -1.951277 16.116755
Head 5.066894 -10.998126 5.853237
LeftShoulder -6.592258 38.201010 19.452566
LeftArm 81.137373 28.193707 -36.516071
LeftForeArm -68.561291 -0.000000 83.449139
LeftHand 6.324480 0.000000 10.631774
LeftHandThumb1 -26.253704 0.000000 33.147579
RightShoulder 1.261444 0.978471 -24.224215
RightArm 26.345199 -36.003151 66.036470
RightForeArm 48.846849 -0.000000 79.416609
RightHand -4.062181 -0.000000 33.473687
RightHandThumb1 -24.326973 -0.000000 -32.862282
LeftUpLeg 10.167340 0.601022 16.536167
LeftLeg 21.033567 -0.000000 -0.000000
LeftFoot -15.674414 2.466590 -10.472303
LeftToeBase -9.408078 -0.000000 0.000000
RightUpLeg -115.983890 8.645936 18.250197
RightLeg 105.339131 -0.000000 -0.000000
RightFoot 37.541453 -12.139879 9.171046
RightToeBase 30.600293 -0.000000 -0.000000
745
root 2.445164 33.151378 -7.696030 -24.584777 17.636563 -20.953217
Spine 18.423757 -1.971420 16.109113
Head 5.010820 -11.013023 5.864712
LeftShoulder -6.601795 38.156439 19.465836
LeftArm 81.137221 28.214591 -36.501861
LeftForeArm -68.587054 -0.000000 83.433185
LeftHand 6.413637 -0.000000 10.710429
LeftHandThumb1 -26.253704 0.000000 33.147579
RightShoulder 1.234279 0.968800 -24.209159
RightArm 26.389424 -36.009387 66.007616
RightForeArm 48.862719 -0.000000 79.404540
RightHand -4.051767 0.000000 33.486839
RightHandThumb1 -24.326973 -0.000000 -32.862282
LeftUpLeg 10.159345 0.630620 16.567208
LeftLeg 21.037959 -0.000000 -0.000000
LeftFoot -15.641782 2.258112 -10.620416
LeftToeBase -9.214735 -0.000000 0.000000
RightUpLeg -115.984881 8.623317 18.231306
RightLeg 105.347842 -0.000000 -0.000000
RightFoot 37.525884 -12.153229 9.177666
RightToeBase 30.589912 -0.000000 -0.000000
746
root 2.445015 33.153726 -7.702435 -24.606901 17.684464 -20.970849
Spine 18.427955 -1.976515 16.101177
Head 4.967566 -11.022389 5.893291
LeftShoulder -6.595498 38.122775 19.487873
LeftArm 81.132956 28.219845 -36.501023
LeftForeArm -68.589799 -0.000000 83.406178
LeftHand 6.402096 -0.000000 10.629733
LeftHandThumb1 -26.253704 0.000000 33.147579
RightShoulder 1.203347 0.975550 -24.183658
RightArm 26.396481 -36.015131 65.999292
RightForeArm 48.847386 -0.000000 79.393743
RightHand -4.050133 0.000000 33.513590
RightHandThumb1 -24.326973 -0.000000 -32.862282
LeftUpLeg 10.148337 0.671579 16.609079
LeftLeg 21.032670 -0.000000 -0.000000
LeftFoot -15.592508 2.062386 -10.805817
LeftToeBase -9.292767 -0.000000 0.000000
RightUpLeg -115.985138 8.605667 18.212826
RightLeg 105.354585 -0.000000 -0.000000
RightFoot 37.514725 -12.185714 9.194426
RightToeBase 30.527063 -0.000000 -0.000000
747
root 2.446240 33.155561 -7.707174 -24.633434 17.728018 -20.982553
Spine 18.429403 -1.990686 16.088765
Head 4.940436 -11.015119 5.904754
LeftShoulder -6.579264 38.096033 19.520722
LeftArm 81.103925 28.227108 -36.532068
LeftForeArm -68.522230 -0.000000 83.380971
LeftHand 6.274118 -0.000000 10.478037
LeftHandThumb1 -26.253704 0.000000 33.147579
RightShoulder 1.172565 0.969329 -24.162537
RightArm 26.438617 -36.034385 65.985238
RightForeArm 48.837496 0.000000 79.364368
RightHand -4.065072 -0.000000 33.531022
RightHandThumb1 -24.326973 -0.000000 -32.862282
LeftUpLeg 10.147263 0.764160 16.664221
LeftLeg 21.037608 -0.000000 -0.000000
LeftFoot -15.559281 1.837323 -10.953282
LeftToeBase -9.211544 -0.000000 0.000000
RightUpLeg -115.979542 8.587193 18.196920
RightLeg 105.368182 -0.000000 -0.000000
RightFoot 37.512553 -12.156356 9.156617
RightToeBase 30.537364 -0.000000 -0.000000
748
root 2.446547 33.157259 -7.713531 -24.650750 17.779648 -20.984577
Spine 18.431696 -2.007321 16.055943
Head 4.902844 -11.012353 5.935316
LeftShoulder -6.557120 38.078794 19.555278
LeftArm 81.093779 28.220171 -36.542506
LeftForeArm -68.547301 -0.000000 83.366298
LeftHand 6.268752 -0.000000 10.426529
LeftHandThumb1 -26.253704 0.000000 33.147579
RightShoulder 1.137123 0.950602 -24.135548
RightArm 26.497113 -36.034980 65.976534
RightForeArm 48.835626 -0.000000 79.310103
RightHand -4.076632 0.000000 33.586036
RightHandThumb1 -24.326973 -0.000000 -32.862282
LeftUpLeg 10.137396 0.868049 16.719276
LeftLeg 21.040220 -0.000000 -0.000000
LeftFoot -15.535457 1.542947 -11.184820
LeftToeBase -9.103561 -0.000000 0.000000
RightUpLeg -115.976102 8.571808 18.163253
RightLeg 105.365203 -0.000000 -0.000000
RightFoot 37.547675 -12.143015 9.100898
RightToeBase 30.479133 -0.000000 -0.000000
